<?xml version="1.0" encoding="utf-8"?>
<svg xmlns="http://www.w3.org/2000/svg">
<symbol id="angle-down-regular" viewBox="0 0 320 512"><path d="M151.5 347.8 3.5 201c-4.7-4.7-4.7-12.3 0-17l19.8-19.8c4.7-4.7 12.3-4.7 17 0L160 282.7l119.7-118.5c4.7-4.7 12.3-4.7 17 0l19.8 19.8c4.7 4.7 4.7 12.3 0 17l-148 146.8c-4.7 4.7-12.3 4.7-17 0z"/>
</symbol>
<symbol id="bars-light" viewBox="0 0 448 512"><path fill="currentColor" d="M442 114H6a6 6 0 0 1-6-6V84a6 6 0 0 1 6-6h436a6 6 0 0 1 6 6v24a6 6 0 0 1-6 6zm0 160H6a6 6 0 0 1-6-6v-24a6 6 0 0 1 6-6h436a6 6 0 0 1 6 6v24a6 6 0 0 1-6 6zm0 160H6a6 6 0 0 1-6-6v-24a6 6 0 0 1 6-6h436a6 6 0 0 1 6 6v24a6 6 0 0 1-6 6z"/>
</symbol>
<symbol id="bars-solid" viewBox="0 0 448 512"><path fill="currentColor" d="M16 132h416c8.837 0 16-7.163 16-16V76c0-8.837-7.163-16-16-16H16C7.163 60 0 67.163 0 76v40c0 8.837 7.163 16 16 16zm0 160h416c8.837 0 16-7.163 16-16v-40c0-8.837-7.163-16-16-16H16c-8.837 0-16 7.163-16 16v40c0 8.837 7.163 16 16 16zm0 160h416c8.837 0 16-7.163 16-16v-40c0-8.837-7.163-16-16-16H16c-8.837 0-16 7.163-16 16v40c0 8.837 7.163 16 16 16z"/>
</symbol>
<symbol id="check-square-light" viewBox="0 0 448 512"><!-- Font Awesome Pro 5.15.4 by @fontawesome - https://fontawesome.com License - https://fontawesome.com/license (Commercial License) --><path d="M400 32H48C21.49 32 0 53.49 0 80v352c0 26.51 21.49 48 48 48h352c26.51 0 48-21.49 48-48V80c0-26.51-21.49-48-48-48zm0 32c8.823 0 16 7.178 16 16v352c0 8.822-7.177 16-16 16H48c-8.822 0-16-7.178-16-16V80c0-8.822 7.178-16 16-16h352m-34.301 98.293l-8.451-8.52c-4.667-4.705-12.265-4.736-16.97-.068l-163.441 162.13-68.976-69.533c-4.667-4.705-12.265-4.736-16.97-.068l-8.52 8.451c-4.705 4.667-4.736 12.265-.068 16.97l85.878 86.572c4.667 4.705 12.265 4.736 16.97.068l180.48-179.032c4.704-4.667 4.735-12.265.068-16.97z"/>
</symbol>
<symbol id="chevron-double-down-light" viewBox="0 0 448 512"><path fill="currentColor" d="m443.5 98.5-211 211.1c-4.7 4.7-12.3 4.7-17 0L4.5 98.5c-4.7-4.7-4.7-12.3 0-17l7.1-7.1c4.7-4.7 12.3-4.7 17 0L224 269.9 419.5 74.5c4.7-4.7 12.3-4.7 17 0l7.1 7.1c4.6 4.6 4.6 12.2-.1 16.9zm0 111-7.1-7.1c-4.7-4.7-12.3-4.7-17 0L224 397.9 28.5 202.5c-4.7-4.7-12.3-4.7-17 0l-7.1 7.1c-4.7 4.7-4.7 12.3 0 17l211 211.1c4.7 4.7 12.3 4.7 17 0l211-211.1c4.8-4.8 4.8-12.4.1-17.1z"/>
</symbol>
<symbol id="chevron-double-left-light" viewBox="0 0 384 512"><path fill="currentColor" d="m349.5 475.5-211.1-211c-4.7-4.7-4.7-12.3 0-17l211.1-211c4.7-4.7 12.3-4.7 17 0l7.1 7.1c4.7 4.7 4.7 12.3 0 17L178.1 256l195.5 195.5c4.7 4.7 4.7 12.3 0 17l-7.1 7.1c-4.7 4.6-12.3 4.6-17-.1zm-111 0 7.1-7.1c4.7-4.7 4.7-12.3 0-17L50.1 256 245.5 60.5c4.7-4.7 4.7-12.3 0-17l-7.1-7.1c-4.7-4.7-12.3-4.7-17 0l-211.1 211c-4.7 4.7-4.7 12.3 0 17l211.1 211c4.8 4.8 12.4 4.8 17.1.1z"/>
</symbol>
<symbol id="chevron-double-right-light" viewBox="0 0 384 512"><path fill="currentColor" d="m34.5 36.5 211.1 211c4.7 4.7 4.7 12.3 0 17l-211.1 211c-4.7 4.7-12.3 4.7-17 0l-7.1-7.1c-4.7-4.7-4.7-12.3 0-17L205.9 256 10.5 60.5c-4.7-4.7-4.7-12.3 0-17l7.1-7.1c4.6-4.6 12.2-4.6 16.9.1zm111 0-7.1 7.1c-4.7 4.7-4.7 12.3 0 17L333.9 256 138.5 451.5c-4.7 4.7-4.7 12.3 0 17l7.1 7.1c4.7 4.7 12.3 4.7 17 0l211.1-211c4.7-4.7 4.7-12.3 0-17l-211.1-211c-4.8-4.8-12.4-4.8-17.1-.1z"/>
</symbol>
<symbol id="chevron-left-light" viewBox="0 0 320 512"><!--! Font Awesome Pro 6.0.0 by @fontawesome - https://fontawesome.com License - https://fontawesome.com/license (Commercial License) Copyright 2022 Fonticons, Inc.--><path d="M234.8 36.25c3.438 3.141 5.156 7.438 5.156 11.75 0 3.891-1.406 7.781-4.25 10.86L53.77 256l181.1 197.1c6 6.5 5.625 16.64-.906 22.61-6.5 6-16.59 5.594-22.59-.89l-192-208a15.956 15.956 0 0 1 0-21.72l192-208c6.826-6.44 16.926-6.85 23.426-.85z"/>
</symbol>
<symbol id="chevron-right-light" viewBox="0 0 320 512"><!--! Font Awesome Pro 6.0.0 by @fontawesome - https://fontawesome.com License - https://fontawesome.com/license (Commercial License) Copyright 2022 Fonticons, Inc.--><path d="M85.14 475.8c-3.438-3.141-5.156-7.438-5.156-11.75 0-3.891 1.406-7.781 4.25-10.86l181.1-197.1L84.23 58.86c-6-6.5-5.625-16.64.906-22.61 6.5-6 16.59-5.594 22.59.89l192 208a15.956 15.956 0 0 1 0 21.72l-192 208c-6.026 6.44-16.086 6.94-22.586.94z"/>
</symbol>
<symbol id="chevrons-up-light" viewBox="0 0 448 512"><!--! Font Awesome Pro 6.0.0 by @fontawesome - https://fontawesome.com License - https://fontawesome.com/license (Commercial License) Copyright 2022 Fonticons, Inc.--><path d="m26.86 267.8 197.1-181.1 197.1 181.1c3.14 2.8 7.04 4.2 10.94 4.2 4.312 0 8.609-1.719 11.75-5.156 6-6.5 5.594-16.59-.89-22.59l-208-192a15.956 15.956 0 0 0-21.72 0l-208 192c-6.485 6-6.892 16.09-.891 22.59 5.971 6.556 16.111 6.956 22.611.956zm208.04-23.6a15.956 15.956 0 0 0-21.72 0l-208 192c-6.484 6-6.891 16.09-.89 22.59 5.968 6.531 16.11 6.906 22.61.906l197.1-181.1 197.1 181.1a15.943 15.943 0 0 0 10.86 4.25c4.311 0 8.608-1.719 11.75-5.156 6-6.5 5.593-16.59-.891-22.59L234.9 244.2z"/>
</symbol>
<symbol id="cog-light" viewBox="0 0 512 512"><path d="m482.696 299.276-32.61-18.827a195.168 195.168 0 0 0 0-48.899l32.61-18.827c9.576-5.528 14.195-16.902 11.046-27.501-11.214-37.749-31.175-71.728-57.535-99.595-7.634-8.07-19.817-9.836-29.437-4.282l-32.562 18.798a194.125 194.125 0 0 0-42.339-24.48V38.049c0-11.13-7.652-20.804-18.484-23.367-37.644-8.909-77.118-8.91-114.77 0-10.831 2.563-18.484 12.236-18.484 23.367v37.614a194.101 194.101 0 0 0-42.339 24.48L105.23 81.345c-9.621-5.554-21.804-3.788-29.437 4.282-26.36 27.867-46.321 61.847-57.535 99.595-3.149 10.599 1.47 21.972 11.046 27.501l32.61 18.827a195.168 195.168 0 0 0 0 48.899l-32.61 18.827c-9.576 5.528-14.195 16.902-11.046 27.501 11.214 37.748 31.175 71.728 57.535 99.595 7.634 8.07 19.817 9.836 29.437 4.283l32.562-18.798a194.08 194.08 0 0 0 42.339 24.479v37.614c0 11.13 7.652 20.804 18.484 23.367 37.645 8.909 77.118 8.91 114.77 0 10.831-2.563 18.484-12.236 18.484-23.367v-37.614a194.138 194.138 0 0 0 42.339-24.479l32.562 18.798c9.62 5.554 21.803 3.788 29.437-4.283 26.36-27.867 46.321-61.847 57.535-99.595 3.149-10.599-1.47-21.972-11.046-27.501zm-65.479 100.461-46.309-26.74c-26.988 23.071-36.559 28.876-71.039 41.059v53.479a217.145 217.145 0 0 1-87.738 0v-53.479c-33.621-11.879-43.355-17.395-71.039-41.059l-46.309 26.74c-19.71-22.09-34.689-47.989-43.929-75.958l46.329-26.74c-6.535-35.417-6.538-46.644 0-82.079l-46.329-26.74c9.24-27.969 24.22-53.869 43.929-75.969l46.309 26.76c27.377-23.434 37.063-29.065 71.039-41.069V44.464a216.79 216.79 0 0 1 87.738 0v53.479c33.978 12.005 43.665 17.637 71.039 41.069l46.309-26.76c19.709 22.099 34.689 47.999 43.929 75.969l-46.329 26.74c6.536 35.426 6.538 46.644 0 82.079l46.329 26.74c-9.24 27.968-24.219 53.868-43.929 75.957zM256 160c-52.935 0-96 43.065-96 96s43.065 96 96 96 96-43.065 96-96-43.065-96-96-96zm0 160c-35.29 0-64-28.71-64-64s28.71-64 64-64 64 28.71 64 64-28.71 64-64 64z"/>
</symbol>
<symbol id="edit-light" viewBox="0 0 576 512"><path fill="currentColor" d="m417.8 315.5 20-20c3.8-3.8 10.2-1.1 10.2 4.2V464c0 26.5-21.5 48-48 48H48c-26.5 0-48-21.5-48-48V112c0-26.5 21.5-48 48-48h292.3c5.3 0 8 6.5 4.2 10.2l-20 20c-1.1 1.1-2.7 1.8-4.2 1.8H48c-8.8 0-16 7.2-16 16v352c0 8.8 7.2 16 16 16h352c8.8 0 16-7.2 16-16V319.7c0-1.6.6-3.1 1.8-4.2zm145.9-191.2L251.2 436.8l-99.9 11.1c-13.4 1.5-24.7-9.8-23.2-23.2l11.1-99.9L451.7 12.3c16.4-16.4 43-16.4 59.4 0l52.6 52.6c16.4 16.4 16.4 43 0 59.4zm-93.6 48.4L403.4 106 169.8 339.5l-8.3 75.1 75.1-8.3 233.5-233.6zm71-85.2-52.6-52.6c-3.8-3.8-10.2-4-14.1 0L426 83.3l66.7 66.7 48.4-48.4c3.9-3.8 3.9-10.2 0-14.1z"/>
</symbol>
<symbol id="envelope-solid" viewBox="0 0 512 512"><path fill="currentColor" d="M502.3 190.8c3.9-3.1 9.7-.2 9.7 4.7V400c0 26.5-21.5 48-48 48H48c-26.5 0-48-21.5-48-48V195.6c0-5 5.7-7.8 9.7-4.7 22.4 17.4 52.1 39.5 154.1 113.6 21.1 15.4 56.7 47.8 92.2 47.6 35.7.3 72-32.8 92.3-47.6 102-74.1 131.6-96.3 154-113.7zM256 320c23.2.4 56.6-29.2 73.4-41.4 132.7-96.3 142.8-104.7 173.4-128.7 5.8-4.5 9.2-11.5 9.2-18.9v-19c0-26.5-21.5-48-48-48H48C21.5 64 0 85.5 0 112v19c0 7.4 3.4 14.3 9.2 18.9 30.6 23.9 40.7 32.4 173.4 128.7 16.8 12.2 50.2 41.8 73.4 41.4z"/>
</symbol>
<symbol id="facebook-square-brands" viewBox="0 0 448 512"><path fill="currentColor" d="M400 32H48A48 48 0 0 0 0 80v352a48 48 0 0 0 48 48h137.25V327.69h-63V256h63v-54.64c0-62.15 37-96.48 93.67-96.48 27.14 0 55.52 4.84 55.52 4.84v61h-31.27c-30.81 0-40.42 19.12-40.42 38.73V256h68.78l-11 71.69h-57.78V480H400a48 48 0 0 0 48-48V80a48 48 0 0 0-48-48z"/>
</symbol>
<symbol id="file-pdf-solid" viewBox="0 0 384 512"><path fill="currentColor" d="M181.9 256.1c-5-16-4.9-46.9-2-46.9 8.4 0 7.6 36.9 2 46.9zm-1.7 47.2c-7.7 20.2-17.3 43.3-28.4 62.7 18.3-7 39-17.2 62.9-21.9-12.7-9.6-24.9-23.4-34.5-40.8zM86.1 428.1c0 .8 13.2-5.4 34.9-40.2-6.7 6.3-29.1 24.5-34.9 40.2zM248 160h136v328c0 13.3-10.7 24-24 24H24c-13.3 0-24-10.7-24-24V24C0 10.7 10.7 0 24 0h200v136c0 13.2 10.8 24 24 24zm-8 171.8c-20-12.2-33.3-29-42.7-53.8 4.5-18.5 11.6-46.6 6.2-64.2-4.7-29.4-42.4-26.5-47.8-6.8-5 18.3-.4 44.1 8.1 77-11.6 27.6-28.7 64.6-40.8 85.8-.1 0-.1.1-.2.1-27.1 13.9-73.6 44.5-54.5 68 5.6 6.9 16 10 21.5 10 17.9 0 35.7-18 61.1-61.8 25.8-8.5 54.1-19.1 79-23.2 21.7 11.8 47.1 19.5 64 19.5 29.2 0 31.2-32 19.7-43.4-13.9-13.6-54.3-9.7-73.6-7.2zM377 105 279 7c-4.5-4.5-10.6-7-17-7h-6v128h128v-6.1c0-6.3-2.5-12.4-7-16.9zm-74.1 255.3c4.1-2.7-2.5-11.9-42.8-9 37.1 15.8 42.8 9 42.8 9z"/>
</symbol>
<symbol id="hdd-light" viewBox="0 0 576 512"><path d="M566.819 227.377 462.377 83.768A48.001 48.001 0 0 0 423.557 64H152.443a47.998 47.998 0 0 0-38.819 19.768L9.181 227.377A47.996 47.996 0 0 0 0 255.609V400c0 26.51 21.49 48 48 48h480c26.51 0 48-21.49 48-48V255.609a47.996 47.996 0 0 0-9.181-28.232zM139.503 102.589A16.048 16.048 0 0 1 152.443 96h271.115c5.102 0 9.939 2.463 12.94 6.589L524.796 224H51.204l88.299-121.411zM544 272v128c0 8.823-7.178 16-16 16H48c-8.822 0-16-7.177-16-16V272c0-8.837 7.163-16 16-16h480c8.837 0 16 7.163 16 16zm-56 64c0 13.255-10.745 24-24 24s-24-10.745-24-24 10.745-24 24-24 24 10.745 24 24zm-64 0c0 13.255-10.745 24-24 24s-24-10.745-24-24 10.745-24 24-24 24 10.745 24 24z"/>
</symbol>
<symbol id="heart-light" viewBox="0 0 512 512"><path fill="currentColor" d="M462.3 62.7c-54.5-46.4-136-38.7-186.6 13.5L256 96.6l-19.7-20.3C195.5 34.1 113.2 8.7 49.7 62.7c-62.8 53.6-66.1 149.8-9.9 207.8l193.5 199.8c6.2 6.4 14.4 9.7 22.6 9.7 8.2 0 16.4-3.2 22.6-9.7L472 270.5c56.4-58 53.1-154.2-9.7-207.8zm-13.1 185.6L256.4 448.1 62.8 248.3c-38.4-39.6-46.4-115.1 7.7-161.2 54.8-46.8 119.2-12.9 142.8 11.5l42.7 44.1 42.7-44.1c23.2-24 88.2-58 142.8-11.5 54 46 46.1 121.5 7.7 161.2z"/>
</symbol>
<symbol id="heart-solid" viewBox="0 0 512 512"><path fill="currentColor" d="M462.3 62.6C407.5 15.9 326 24.3 275.7 76.2L256 96.5l-19.7-20.3C186.1 24.3 104.5 15.9 49.7 62.6c-62.8 53.6-66.1 149.8-9.9 207.9l193.5 199.8c12.5 12.9 32.8 12.9 45.3 0l193.5-199.8c56.3-58.1 53-154.3-9.8-207.9z"/>
</symbol>
<symbol id="home-alt-light" viewBox="0 0 576 512"><path fill="currentColor" d="m541 229.16-232.85-190a32.16 32.16 0 0 0-40.38 0L35 229.16a8 8 0 0 0-1.16 11.24l10.1 12.41a8 8 0 0 0 11.2 1.19L96 220.62v243a16 16 0 0 0 16 16h128a16 16 0 0 0 16-16v-128l64 .3V464a16 16 0 0 0 16 16l128-.33a16 16 0 0 0 16-16V220.62L520.86 254a8 8 0 0 0 11.25-1.16l10.1-12.41a8 8 0 0 0-1.21-11.27zm-93.11 218.59h.1l-96 .3V319.88a16.05 16.05 0 0 0-15.95-16l-96-.27a16 16 0 0 0-16.05 16v128.14H128V194.51L288 63.94l160 130.57z"/>
</symbol>
<symbol id="instagram-brands" viewBox="0 0 448 512"><path fill="currentColor" d="M224.1 141c-63.6 0-114.9 51.3-114.9 114.9s51.3 114.9 114.9 114.9S339 319.5 339 255.9 287.7 141 224.1 141zm0 189.6c-41.1 0-74.7-33.5-74.7-74.7s33.5-74.7 74.7-74.7 74.7 33.5 74.7 74.7-33.6 74.7-74.7 74.7zm146.4-194.3c0 14.9-12 26.8-26.8 26.8-14.9 0-26.8-12-26.8-26.8s12-26.8 26.8-26.8 26.8 12 26.8 26.8zm76.1 27.2c-1.7-35.9-9.9-67.7-36.2-93.9-26.2-26.2-58-34.4-93.9-36.2-37-2.1-147.9-2.1-184.9 0-35.8 1.7-67.6 9.9-93.9 36.1s-34.4 58-36.2 93.9c-2.1 37-2.1 147.9 0 184.9 1.7 35.9 9.9 67.7 36.2 93.9s58 34.4 93.9 36.2c37 2.1 147.9 2.1 184.9 0 35.9-1.7 67.7-9.9 93.9-36.2 26.2-26.2 34.4-58 36.2-93.9 2.1-37 2.1-147.8 0-184.8zM398.8 388c-7.8 19.6-22.9 34.7-42.6 42.6-29.5 11.7-99.5 9-132.1 9s-102.7 2.6-132.1-9c-19.6-7.8-34.7-22.9-42.6-42.6-11.7-29.5-9-99.5-9-132.1s-2.6-102.7 9-132.1c7.8-19.6 22.9-34.7 42.6-42.6 29.5-11.7 99.5-9 132.1-9s102.7-2.6 132.1 9c19.6 7.8 34.7 22.9 42.6 42.6 11.7 29.5 9 99.5 9 132.1s2.7 102.7-9 132.1z"/>
</symbol>
<symbol id="keyboard-light" viewBox="0 0 576 512"><path d="M528 64H48C21.49 64 0 85.49 0 112v288c0 26.51 21.49 48 48 48h480c26.51 0 48-21.49 48-48V112c0-26.51-21.49-48-48-48zm16 336c0 8.823-7.177 16-16 16H48c-8.823 0-16-7.177-16-16V112c0-8.823 7.177-16 16-16h480c8.823 0 16 7.177 16 16v288zM168 268v-24c0-6.627-5.373-12-12-12h-24c-6.627 0-12 5.373-12 12v24c0 6.627 5.373 12 12 12h24c6.627 0 12-5.373 12-12zm96 0v-24c0-6.627-5.373-12-12-12h-24c-6.627 0-12 5.373-12 12v24c0 6.627 5.373 12 12 12h24c6.627 0 12-5.373 12-12zm96 0v-24c0-6.627-5.373-12-12-12h-24c-6.627 0-12 5.373-12 12v24c0 6.627 5.373 12 12 12h24c6.627 0 12-5.373 12-12zm96 0v-24c0-6.627-5.373-12-12-12h-24c-6.627 0-12 5.373-12 12v24c0 6.627 5.373 12 12 12h24c6.627 0 12-5.373 12-12zm-336 80v-24c0-6.627-5.373-12-12-12H84c-6.627 0-12 5.373-12 12v24c0 6.627 5.373 12 12 12h24c6.627 0 12-5.373 12-12zm384 0v-24c0-6.627-5.373-12-12-12h-24c-6.627 0-12 5.373-12 12v24c0 6.627 5.373 12 12 12h24c6.627 0 12-5.373 12-12zM120 188v-24c0-6.627-5.373-12-12-12H84c-6.627 0-12 5.373-12 12v24c0 6.627 5.373 12 12 12h24c6.627 0 12-5.373 12-12zm96 0v-24c0-6.627-5.373-12-12-12h-24c-6.627 0-12 5.373-12 12v24c0 6.627 5.373 12 12 12h24c6.627 0 12-5.373 12-12zm96 0v-24c0-6.627-5.373-12-12-12h-24c-6.627 0-12 5.373-12 12v24c0 6.627 5.373 12 12 12h24c6.627 0 12-5.373 12-12zm96 0v-24c0-6.627-5.373-12-12-12h-24c-6.627 0-12 5.373-12 12v24c0 6.627 5.373 12 12 12h24c6.627 0 12-5.373 12-12zm96 0v-24c0-6.627-5.373-12-12-12h-24c-6.627 0-12 5.373-12 12v24c0 6.627 5.373 12 12 12h24c6.627 0 12-5.373 12-12zm-96 152v-8c0-6.627-5.373-12-12-12H180c-6.627 0-12 5.373-12 12v8c0 6.627 5.373 12 12 12h216c6.627 0 12-5.373 12-12z"/>
</symbol>
<symbol id="level-up-alt-regular" viewBox="0 0 320 512"><path d="m296.64 99.674-96.16-96.16c-4.686-4.687-12.285-4.686-16.97 0L87.353 99.671c-7.536 7.536-2.198 20.484 8.485 20.485l68.162.002V456H64a11.996 11.996 0 0 0-8.485 3.515l-32 32C15.955 499.074 21.309 512 32 512h164c13.255 0 24-10.745 24-24V120.159l68.154.001c10.626 0 16.066-12.906 8.486-20.486z"/>
</symbol>
<symbol id="list-light" viewBox="0 0 512 512"><path fill="currentColor" d="M88 56H40a16 16 0 0 0-16 16v48a16 16 0 0 0 16 16h48a16 16 0 0 0 16-16V72a16 16 0 0 0-16-16zm0 160H40a16 16 0 0 0-16 16v48a16 16 0 0 0 16 16h48a16 16 0 0 0 16-16v-48a16 16 0 0 0-16-16zm0 160H40a16 16 0 0 0-16 16v48a16 16 0 0 0 16 16h48a16 16 0 0 0 16-16v-48a16 16 0 0 0-16-16zm416 24H168a8 8 0 0 0-8 8v16a8 8 0 0 0 8 8h336a8 8 0 0 0 8-8v-16a8 8 0 0 0-8-8zm0-320H168a8 8 0 0 0-8 8v16a8 8 0 0 0 8 8h336a8 8 0 0 0 8-8V88a8 8 0 0 0-8-8zm0 160H168a8 8 0 0 0-8 8v16a8 8 0 0 0 8 8h336a8 8 0 0 0 8-8v-16a8 8 0 0 0-8-8z"/>
</symbol>
<symbol id="lock-alt-light" viewBox="0 0 448 512"><path fill="currentColor" d="M224 420c-11 0-20-9-20-20v-64c0-11 9-20 20-20s20 9 20 20v64c0 11-9 20-20 20zm224-148v192c0 26.5-21.5 48-48 48H48c-26.5 0-48-21.5-48-48V272c0-26.5 21.5-48 48-48h16v-64C64 71.6 136-.3 224.5 0 312.9.3 384 73.1 384 161.5V224h16c26.5 0 48 21.5 48 48zM96 224h256v-64c0-70.6-57.4-128-128-128S96 89.4 96 160v64zm320 240V272c0-8.8-7.2-16-16-16H48c-8.8 0-16 7.2-16 16v192c0 8.8 7.2 16 16 16h352c8.8 0 16-7.2 16-16z"/>
</symbol>
<symbol id="long-arrow-alt-left-regular" viewBox="0 0 448 512"><path d="M107.515 150.971 8.485 250c-4.686 4.686-4.686 12.284 0 16.971L107.515 366c7.56 7.56 20.485 2.206 20.485-8.485v-71.03h308c6.627 0 12-5.373 12-12v-32c0-6.627-5.373-12-12-12H128v-71.03c0-10.69-12.926-16.044-20.485-8.484z"/>
</symbol>
<symbol id="memory-light" viewBox="0 0 640 512"><path d="M496 272h32V144h-96v128h64zm-32-96h32v64h-32v-64zm-128 96h32V144h-96v128h64zm-32-96h32v64h-32v-64zm-128 96h32V144h-96v128h64zm-32-96h32v64h-32v-64zm488-16h8V96c0-17.67-14.33-32-32-32H32C14.33 64 0 78.33 0 96v64h8c13.26 0 24 10.74 24 24 0 13.25-10.74 24-24 24H0v240h640V208h-8c-13.25 0-24-10.75-24-24 0-13.26 10.75-24 24-24zm-24 256h-80v-16c0-8.84-7.16-16-16-16s-16 7.16-16 16v16h-96v-16c0-8.84-7.16-16-16-16s-16 7.16-16 16v16h-96v-16c0-8.84-7.16-16-16-16s-16 7.16-16 16v16h-96v-16c0-8.84-7.16-16-16-16s-16 7.16-16 16v16H32v-64h576v64zm0-282.59c-18.91 9-32 28.3-32 50.59s13.09 41.59 32 50.59V320H32v-85.41c18.9-9 32-28.3 32-50.59s-13.1-41.59-32-50.59V96h576v37.41z"/>
</symbol>
<symbol id="microchip-light" viewBox="0 0 512 512"><path d="M368 0H144c-26.51 0-48 21.49-48 48v416c0 26.51 21.49 48 48 48h224c26.51 0 48-21.49 48-48V48c0-26.51-21.49-48-48-48zm16 464c0 8.822-7.178 16-16 16H144c-8.822 0-16-7.178-16-16V48c0-8.822 7.178-16 16-16h224c8.822 0 16 7.178 16 16v416zm128-358v12a6 6 0 0 1-6 6h-18v6a6 6 0 0 1-6 6h-42V88h42a6 6 0 0 1 6 6v6h18a6 6 0 0 1 6 6zm0 96v12a6 6 0 0 1-6 6h-18v6a6 6 0 0 1-6 6h-42v-48h42a6 6 0 0 1 6 6v6h18a6 6 0 0 1 6 6zm0 96v12a6 6 0 0 1-6 6h-18v6a6 6 0 0 1-6 6h-42v-48h42a6 6 0 0 1 6 6v6h18a6 6 0 0 1 6 6zm0 96v12a6 6 0 0 1-6 6h-18v6a6 6 0 0 1-6 6h-42v-48h42a6 6 0 0 1 6 6v6h18a6 6 0 0 1 6 6zM30 376h42v48H30a6 6 0 0 1-6-6v-6H6a6 6 0 0 1-6-6v-12a6 6 0 0 1 6-6h18v-6a6 6 0 0 1 6-6zm0-96h42v48H30a6 6 0 0 1-6-6v-6H6a6 6 0 0 1-6-6v-12a6 6 0 0 1 6-6h18v-6a6 6 0 0 1 6-6zm0-96h42v48H30a6 6 0 0 1-6-6v-6H6a6 6 0 0 1-6-6v-12a6 6 0 0 1 6-6h18v-6a6 6 0 0 1 6-6zm0-96h42v48H30a6 6 0 0 1-6-6v-6H6a6 6 0 0 1-6-6v-12a6 6 0 0 1 6-6h18v-6a6 6 0 0 1 6-6z"/>
</symbol>
<symbol id="motorcycle-solid" viewBox="0 0 640 512"><path fill="currentColor" d="M512.9 192c-14.9-.1-29.1 2.3-42.4 6.9L437.6 144H520c13.3 0 24-10.7 24-24V88c0-13.3-10.7-24-24-24h-45.3c-6.8 0-13.3 2.9-17.8 7.9l-37.5 41.7-22.8-38C392.2 68.4 384.4 64 376 64h-80c-8.8 0-16 7.2-16 16v16c0 8.8 7.2 16 16 16h66.4l19.2 32H227.9c-17.7-23.1-44.9-40-99.9-40H72.5C59 104 47.7 115 48 128.5c.2 13 10.9 23.5 24 23.5h56c24.5 0 38.7 10.9 47.8 24.8l-11.3 20.5c-13-3.9-26.9-5.7-41.3-5.2C55.9 194.5 1.6 249.6 0 317c-1.6 72.1 56.3 131 128 131 59.6 0 109.7-40.8 124-96h84.2c13.7 0 24.6-11.4 24-25.1-2.1-47.1 17.5-93.7 56.2-125l12.5 20.8c-27.6 23.7-45.1 58.9-44.8 98.2.5 69.6 57.2 126.5 126.8 127.1 71.6.7 129.8-57.5 129.2-129.1-.7-69.6-57.6-126.4-127.2-126.9zM128 400c-44.1 0-80-35.9-80-80s35.9-80 80-80c4.2 0 8.4.3 12.5 1L99 316.4c-8.8 16 2.8 35.6 21 35.6h81.3c-12.4 28.2-40.6 48-73.3 48zm463.9-75.6c-2.2 40.6-35 73.4-75.5 75.5-46.1 2.5-84.4-34.3-84.4-79.9 0-21.4 8.4-40.8 22.1-55.1l49.4 82.4c4.5 7.6 14.4 10 22 5.5l13.7-8.2c7.6-4.5 10-14.4 5.5-22l-48.6-80.9c5.2-1.1 10.5-1.6 15.9-1.6 45.6-.1 82.3 38.2 79.9 84.3z"/>
</symbol>
<symbol id="phone-alt-light" viewBox="0 0 512 512"><path fill="currentColor" d="M493.09 351.3 384.7 304.8a31.36 31.36 0 0 0-36.5 8.9l-44.1 53.9A350 350 0 0 1 144.5 208l53.9-44.1a31.35 31.35 0 0 0 8.9-36.49l-46.5-108.5A31.33 31.33 0 0 0 125 .81L24.2 24.11A31.05 31.05 0 0 0 0 54.51C0 307.8 205.3 512 457.49 512A31.23 31.23 0 0 0 488 487.7L511.19 387a31.21 31.21 0 0 0-18.1-35.7zM456.89 480C222.4 479.7 32.3 289.7 32.1 55.21l99.6-23 46 107.39-72.8 59.5C153.3 302.3 209.4 358.6 313 407.2l59.5-72.8 107.39 46z"/>
</symbol>
<symbol id="pinterest-square-brands" viewBox="0 0 448 512"><path fill="currentColor" d="M448 80v352c0 26.5-21.5 48-48 48H154.4c9.8-16.4 22.4-40 27.4-59.3 3-11.5 15.3-58.4 15.3-58.4 8 15.3 31.4 28.2 56.3 28.2 74.1 0 127.4-68.1 127.4-152.7 0-81.1-66.2-141.8-151.4-141.8-106 0-162.2 71.1-162.2 148.6 0 36 19.2 80.8 49.8 95.1 4.7 2.2 7.1 1.2 8.2-3.3.8-3.4 5-20.1 6.8-27.8.6-2.5.3-4.6-1.7-7-10.1-12.3-18.3-34.9-18.3-56 0-54.2 41-106.6 110.9-106.6 60.3 0 102.6 41.1 102.6 99.9 0 66.4-33.5 112.4-77.2 112.4-24.1 0-42.1-19.9-36.4-44.4 6.9-29.2 20.3-60.7 20.3-81.8 0-53-75.5-45.7-75.5 25 0 21.7 7.3 36.5 7.3 36.5-31.4 132.8-36.1 134.5-29.6 192.6l2.2.8H48c-26.5 0-48-21.5-48-48V80c0-26.5 21.5-48 48-48h352c26.5 0 48 21.5 48 48z"/>
</symbol>
<symbol id="power-off-light" viewBox="0 0 512 512"><path fill="currentColor" d="M388.5 46.3C457.9 90.3 504 167.8 504 256c0 136.8-110.8 247.7-247.5 248C120 504.3 8.2 393 8 256.4 7.9 168 54 90.3 123.5 46.3c5.8-3.7 13.5-1.8 16.9 4.2l3.9 7c3.1 5.6 1.3 12.6-4.1 16C79.9 112 40 179.6 40 256c0 119.9 97.3 216 216 216 119.9 0 216-97.3 216-216 0-77-40.1-144.2-100.3-182.4-5.4-3.4-7.2-10.5-4.1-16l3.9-7c3.4-6.1 11.2-7.9 17-4.3zM272 276V12c0-6.6-5.4-12-12-12h-8c-6.6 0-12 5.4-12 12v264c0 6.6 5.4 12 12 12h8c6.6 0 12-5.4 12-12z"/>
</symbol>
<symbol id="question-square-light" viewBox="0 0 448 512"><path d="M400 32H48C21.49 32 0 53.49 0 80v352c0 26.51 21.49 48 48 48h352c26.51 0 48-21.49 48-48V80c0-26.51-21.49-48-48-48zm16 400c0 8.822-7.178 16-16 16H48c-8.822 0-16-7.178-16-16V80c0-8.822 7.178-16 16-16h352c8.822 0 16 7.178 16 16v352zm-192-92c-15.464 0-28 12.536-28 28s12.536 28 28 28 28-12.536 28-28-12.536-28-28-28zm7.67-24h-16c-6.627 0-12-5.373-12-12v-.381c0-70.343 77.44-63.619 77.44-107.408 0-20.016-17.761-40.211-57.44-40.211-29.144 0-44.265 9.649-59.211 28.692-3.908 4.98-11.054 5.995-16.248 2.376l-13.134-9.15c-5.625-3.919-6.86-11.771-2.645-17.177C153.658 133.514 178.842 116 223.67 116c52.32 0 97.44 29.751 97.44 80.211 0 67.414-77.44 63.849-77.44 107.408V304c0 6.627-5.373 12-12 12z"/>
</symbol>
<symbol id="search-light" viewBox="0 0 512 512"><path fill="currentColor" d="m508.5 481.6-129-129c-2.3-2.3-5.3-3.5-8.5-3.5h-10.3C395 312 416 262.5 416 208 416 93.1 322.9 0 208 0S0 93.1 0 208s93.1 208 208 208c54.5 0 104-21 141.1-55.2V371c0 3.2 1.3 6.2 3.5 8.5l129 129c4.7 4.7 12.3 4.7 17 0l9.9-9.9c4.7-4.7 4.7-12.3 0-17zM208 384c-97.3 0-176-78.7-176-176S110.7 32 208 32s176 78.7 176 176-78.7 176-176 176z"/>
</symbol>
<symbol id="shopping-cart-light" viewBox="0 0 576 512"><path fill="currentColor" d="M551.991 64H129.28l-8.329-44.423C118.822 8.226 108.911 0 97.362 0H12C5.373 0 0 5.373 0 12v8c0 6.627 5.373 12 12 12h78.72l69.927 372.946C150.305 416.314 144 431.42 144 448c0 35.346 28.654 64 64 64s64-28.654 64-64a63.681 63.681 0 0 0-8.583-32h145.167a63.681 63.681 0 0 0-8.583 32c0 35.346 28.654 64 64 64 35.346 0 64-28.654 64-64 0-17.993-7.435-34.24-19.388-45.868C506.022 391.891 496.76 384 485.328 384H189.28l-12-64h331.381c11.368 0 21.177-7.976 23.496-19.105l43.331-208C578.592 77.991 567.215 64 551.991 64zM240 448c0 17.645-14.355 32-32 32s-32-14.355-32-32 14.355-32 32-32 32 14.355 32 32zm224 32c-17.645 0-32-14.355-32-32s14.355-32 32-32 32 14.355 32 32-14.355 32-32 32zm38.156-192H171.28l-36-192h406.876l-40 192z"/>
</symbol>
<symbol id="sign-in-light" viewBox="0 0 512 512"><path d="m184 83.5 164.5 164c4.7 4.7 4.7 12.3 0 17L184 428.5c-4.7 4.7-12.3 4.7-17 0l-7.1-7.1c-4.7-4.7-4.7-12.3 0-17l132-131.4H12c-6.6 0-12-5.4-12-12v-10c0-6.6 5.4-12 12-12h279.9L160 107.6c-4.7-4.7-4.7-12.3 0-17l7.1-7.1c4.6-4.7 12.2-4.7 16.9 0zM512 400V112c0-26.5-21.5-48-48-48H332c-6.6 0-12 5.4-12 12v8c0 6.6 5.4 12 12 12h132c8.8 0 16 7.2 16 16v288c0 8.8-7.2 16-16 16H332c-6.6 0-12 5.4-12 12v8c0 6.6 5.4 12 12 12h132c26.5 0 48-21.5 48-48z"/>
</symbol>
<symbol id="square-light" viewBox="0 0 448 512"><!-- Font Awesome Pro 5.15.4 by @fontawesome - https://fontawesome.com License - https://fontawesome.com/license (Commercial License) --><path d="M400 32H48C21.5 32 0 53.5 0 80v352c0 26.5 21.5 48 48 48h352c26.5 0 48-21.5 48-48V80c0-26.5-21.5-48-48-48zm16 400c0 8.8-7.2 16-16 16H48c-8.8 0-16-7.2-16-16V80c0-8.8 7.2-16 16-16h352c8.8 0 16 7.2 16 16v352z"/>
</symbol>
<symbol id="star-solid" viewBox="0 0 576 512"><path fill="currentColor" d="M259.3 17.8 194 150.2 47.9 171.5c-26.2 3.8-36.7 36.1-17.7 54.6l105.7 103-25 145.5c-4.5 26.3 23.2 46 46.4 33.7L288 439.6l130.7 68.7c23.2 12.2 50.9-7.4 46.4-33.7l-25-145.5 105.7-103c19-18.5 8.5-50.8-17.7-54.6L382 150.2 316.7 17.8c-11.7-23.6-45.6-23.9-57.4 0z"/>
</symbol>
<symbol id="th-large-solid" viewBox="0 0 512 512"><path fill="currentColor" d="M296 32h192c13.255 0 24 10.745 24 24v160c0 13.255-10.745 24-24 24H296c-13.255 0-24-10.745-24-24V56c0-13.255 10.745-24 24-24zm-80 0H24C10.745 32 0 42.745 0 56v160c0 13.255 10.745 24 24 24h192c13.255 0 24-10.745 24-24V56c0-13.255-10.745-24-24-24zM0 296v160c0 13.255 10.745 24 24 24h192c13.255 0 24-10.745 24-24V296c0-13.255-10.745-24-24-24H24c-13.255 0-24 10.745-24 24zm296 184h192c13.255 0 24-10.745 24-24V296c0-13.255-10.745-24-24-24H296c-13.255 0-24 10.745-24 24v160c0 13.255 10.745 24 24 24z"/>
</symbol>
<symbol id="th-solid" viewBox="0 0 512 512"><path fill="currentColor" d="M149.333 56v80c0 13.255-10.745 24-24 24H24c-13.255 0-24-10.745-24-24V56c0-13.255 10.745-24 24-24h101.333c13.255 0 24 10.745 24 24zm181.334 240v-80c0-13.255-10.745-24-24-24H205.333c-13.255 0-24 10.745-24 24v80c0 13.255 10.745 24 24 24h101.333c13.256 0 24.001-10.745 24.001-24zm32-240v80c0 13.255 10.745 24 24 24H488c13.255 0 24-10.745 24-24V56c0-13.255-10.745-24-24-24H386.667c-13.255 0-24 10.745-24 24zm-32 80V56c0-13.255-10.745-24-24-24H205.333c-13.255 0-24 10.745-24 24v80c0 13.255 10.745 24 24 24h101.333c13.256 0 24.001-10.745 24.001-24zm-205.334 56H24c-13.255 0-24 10.745-24 24v80c0 13.255 10.745 24 24 24h101.333c13.255 0 24-10.745 24-24v-80c0-13.255-10.745-24-24-24zM0 376v80c0 13.255 10.745 24 24 24h101.333c13.255 0 24-10.745 24-24v-80c0-13.255-10.745-24-24-24H24c-13.255 0-24 10.745-24 24zm386.667-56H488c13.255 0 24-10.745 24-24v-80c0-13.255-10.745-24-24-24H386.667c-13.255 0-24 10.745-24 24v80c0 13.255 10.745 24 24 24zm0 160H488c13.255 0 24-10.745 24-24v-80c0-13.255-10.745-24-24-24H386.667c-13.255 0-24 10.745-24 24v80c0 13.255 10.745 24 24 24zM181.333 376v80c0 13.255 10.745 24 24 24h101.333c13.255 0 24-10.745 24-24v-80c0-13.255-10.745-24-24-24H205.333c-13.255 0-24 10.745-24 24z"/>
</symbol>
<symbol id="times-circle-solid" viewBox="0 0 512 512"><path fill="currentColor" d="M256 8C119 8 8 119 8 256s111 248 248 248 248-111 248-248S393 8 256 8zm121.6 313.1c4.7 4.7 4.7 12.3 0 17L338 377.6c-4.7 4.7-12.3 4.7-17 0L256 312l-65.1 65.6c-4.7 4.7-12.3 4.7-17 0L134.4 338c-4.7-4.7-4.7-12.3 0-17l65.6-65-65.6-65.1c-4.7-4.7-4.7-12.3 0-17l39.6-39.6c4.7-4.7 12.3-4.7 17 0l65 65.7 65.1-65.6c4.7-4.7 12.3-4.7 17 0l39.6 39.6c4.7 4.7 4.7 12.3 0 17L312 256l65.6 65.1z"/>
</symbol>
<symbol id="times-light" viewBox="0 0 320 512"><path d="M193.94 256 296.5 153.44l21.15-21.15c3.12-3.12 3.12-8.19 0-11.31l-22.63-22.63c-3.12-3.12-8.19-3.12-11.31 0L160 222.06 36.29 98.34c-3.12-3.12-8.19-3.12-11.31 0L2.34 120.97c-3.12 3.12-3.12 8.19 0 11.31L126.06 256 2.34 379.71c-3.12 3.12-3.12 8.19 0 11.31l22.63 22.63c3.12 3.12 8.19 3.12 11.31 0L160 289.94 262.56 392.5l21.15 21.15c3.12 3.12 8.19 3.12 11.31 0l22.63-22.63c3.12-3.12 3.12-8.19 0-11.31L193.94 256z"/>
</symbol>
<symbol id="twitter-square-brands" viewBox="0 0 448 512"><path fill="currentColor" d="M400 32H48C21.5 32 0 53.5 0 80v352c0 26.5 21.5 48 48 48h352c26.5 0 48-21.5 48-48V80c0-26.5-21.5-48-48-48zm-48.9 158.8c.2 2.8.2 5.7.2 8.5 0 86.7-66 186.6-186.6 186.6-37.2 0-71.7-10.8-100.7-29.4 5.3.6 10.4.8 15.8.8 30.7 0 58.9-10.4 81.4-28-28.8-.6-53-19.5-61.3-45.5 10.1 1.5 19.2 1.5 29.6-1.2-30-6.1-52.5-32.5-52.5-64.4v-.8c8.7 4.9 18.9 7.9 29.6 8.3a65.447 65.447 0 0 1-29.2-54.6c0-12.2 3.2-23.4 8.9-33.1 32.3 39.8 80.8 65.8 135.2 68.6-9.3-44.5 24-80.6 64-80.6 18.9 0 35.9 7.9 47.9 20.7 14.8-2.8 29-8.3 41.6-15.8-4.9 15.2-15.2 28-28.8 36.1 13.2-1.4 26-5.1 37.8-10.2-8.9 13.1-20.1 24.7-32.9 34z"/>
</symbol>
<symbol id="user-light" viewBox="0 0 448 512"><path fill="currentColor" d="M313.6 288c-28.7 0-42.5 16-89.6 16-47.1 0-60.8-16-89.6-16C60.2 288 0 348.2 0 422.4V464c0 26.5 21.5 48 48 48h352c26.5 0 48-21.5 48-48v-41.6c0-74.2-60.2-134.4-134.4-134.4zM416 464c0 8.8-7.2 16-16 16H48c-8.8 0-16-7.2-16-16v-41.6C32 365.9 77.9 320 134.4 320c19.6 0 39.1 16 89.6 16 50.4 0 70-16 89.6-16 56.5 0 102.4 45.9 102.4 102.4V464zM224 256c70.7 0 128-57.3 128-128S294.7 0 224 0 96 57.3 96 128s57.3 128 128 128zm0-224c52.9 0 96 43.1 96 96s-43.1 96-96 96-96-43.1-96-96 43.1-96 96-96z"/>
</symbol>
<symbol id="user-plus-light" viewBox="0 0 640 512"><path fill="currentColor" d="M632 224h-88v-88c0-4.4-3.6-8-8-8h-16c-4.4 0-8 3.6-8 8v88h-88c-4.4 0-8 3.6-8 8v16c0 4.4 3.6 8 8 8h88v88c0 4.4 3.6 8 8 8h16c4.4 0 8-3.6 8-8v-88h88c4.4 0 8-3.6 8-8v-16c0-4.4-3.6-8-8-8zm-318.4 64c-28.7 0-42.5 16-89.6 16-47.1 0-60.8-16-89.6-16C60.2 288 0 348.2 0 422.4V464c0 26.5 21.5 48 48 48h352c26.5 0 48-21.5 48-48v-41.6c0-74.2-60.2-134.4-134.4-134.4zM416 464c0 8.8-7.2 16-16 16H48c-8.8 0-16-7.2-16-16v-41.6C32 365.9 77.9 320 134.4 320c19.6 0 39.1 16 89.6 16 50.4 0 70-16 89.6-16 56.5 0 102.4 45.9 102.4 102.4V464zM224 256c70.7 0 128-57.3 128-128S294.7 0 224 0 96 57.3 96 128s57.3 128 128 128zm0-224c52.9 0 96 43.1 96 96s-43.1 96-96 96-96-43.1-96-96 43.1-96 96-96z"/>
</symbol>
<symbol id="youtube-brands" viewBox="0 0 576 512"><path fill="currentColor" d="M549.655 124.083c-6.281-23.65-24.787-42.276-48.284-48.597C458.781 64 288 64 288 64S117.22 64 74.629 75.486c-23.497 6.322-42.003 24.947-48.284 48.597-11.412 42.867-11.412 132.305-11.412 132.305s0 89.438 11.412 132.305c6.281 23.65 24.787 41.5 48.284 47.821C117.22 448 288 448 288 448s170.78 0 213.371-11.486c23.497-6.321 42.003-24.171 48.284-47.821 11.412-42.867 11.412-132.305 11.412-132.305s0-89.438-11.412-132.305zm-317.51 213.508V175.185l142.739 81.205-142.739 81.201z"/>
</symbol></svg>