<?xml version="1.0" encoding="utf-8"?>
<svg xmlns="http://www.w3.org/2000/svg">
<symbol id="angle-down-regular" viewBox="0 0 320 512"><path d="M151.5 347.8 3.5 201c-4.7-4.7-4.7-12.3 0-17l19.8-19.8c4.7-4.7 12.3-4.7 17 0L160 282.7l119.7-118.5c4.7-4.7 12.3-4.7 17 0l19.8 19.8c4.7 4.7 4.7 12.3 0 17l-148 146.8c-4.7 4.7-12.3 4.7-17 0z"/>
</symbol>
<symbol id="cart-shopping-solid" viewBox="0 0 576 512"><!--! Font Awesome Pro 6.0.0 by @fontawesome - https://fontawesome.com License - https://fontawesome.com/license (Commercial License) Copyright 2022 Fonticons, Inc.--><path d="M96 0c11.5 0 21.4 8.19 23.6 19.51L121.1 32h420.7c20.3 0 36.5 20.25 30.8 40.66l-54 192.04c-3.9 13.8-16.5 23.3-30.8 23.3H170.7l9.2 48H488c13.3 0 24 10.7 24 24s-10.7 24-24 24H159.1c-10.6 0-20.5-8.2-22.7-19.5L76.14 48H24C10.75 48 0 37.25 0 24S10.75 0 24 0h72zm32 464c0-26.5 21.5-48 48-48s48 21.5 48 48-21.5 48-48 48-48-21.5-48-48zm384 0c0 26.5-21.5 48-48 48s-48-21.5-48-48 21.5-48 48-48 48 21.5 48 48z"/>
</symbol>
<symbol id="location-dot-solid" viewBox="0 0 384 512"><!--! Font Awesome Pro 6.0.0 by @fontawesome - https://fontawesome.com License - https://fontawesome.com/license (Commercial License) Copyright 2022 Fonticons, Inc.--><path d="M168.3 499.2C116.1 435 0 279.4 0 192 0 85.96 85.96 0 192 0c106 0 192 85.96 192 192 0 87.4-117 243-168.3 307.2-12.3 15.3-35.1 15.3-47.4 0zM192 256c35.3 0 64-28.7 64-64s-28.7-64-64-64-64 28.7-64 64 28.7 64 64 64z"/>
</symbol>
<symbol id="magnifying-glass-solid" viewBox="0 0 512 512"><!--! Font Awesome Pro 6.0.0 by @fontawesome - https://fontawesome.com License - https://fontawesome.com/license (Commercial License) Copyright 2022 Fonticons, Inc.--><path d="M500.3 443.7 380.6 324c27.22-40.41 40.65-90.9 33.46-144.7C401.8 87.79 326.8 13.32 235.2 1.723 99.01-15.51-15.51 99.01 1.724 235.2c11.6 91.64 86.08 166.7 177.6 178.9 53.8 7.189 104.3-6.236 144.7-33.46l119.7 119.7c15.62 15.62 40.95 15.62 56.57 0 15.606-15.64 15.606-41.04.006-56.64zM79.1 208c0-70.58 57.42-128 128-128s128 57.42 128 128-57.42 128-128 128-128-57.4-128-128z"/>
</symbol>
<symbol id="phone-solid" viewBox="0 0 512 512"><!--! Font Awesome Pro 6.0.0 by @fontawesome - https://fontawesome.com License - https://fontawesome.com/license (Commercial License) Copyright 2022 Fonticons, Inc.--><path d="m511.2 387-23.25 100.8c-3.266 14.25-15.79 24.22-30.46 24.22C205.2 512 0 306.8 0 54.5c0-14.66 9.969-27.2 24.22-30.45L125.02.8c14.68-3.402 29.68 4.218 35.78 18.12l46.52 108.5c5.438 12.78 1.77 27.67-8.98 36.45L144.5 207.1c33.98 69.22 90.26 125.5 159.5 159.5l44.08-53.8c8.688-10.78 23.69-14.51 36.47-8.975l108.5 46.51C506.1 357.2 514.6 372.4 511.2 387z"/>
</symbol>
<symbol id="truck-fast-solid" viewBox="0 0 640 512"><!--! Font Awesome Pro 6.0.0 by @fontawesome - https://fontawesome.com License - https://fontawesome.com/license (Commercial License) Copyright 2022 Fonticons, Inc.--><path d="M64 48c0-26.51 21.49-48 48-48h256c26.5 0 48 21.49 48 48v208h192v96c17.7 0 32 14.3 32 32s-14.3 32-32 32h-32c0 53-43 96-96 96-53.9 0-96-43-96-96H256c0 53-43 96-96 96-53.9 0-96-43-96-96V288h144c8.8 0 16-7.2 16-16s-7.2-16-16-16H16c-8.836 0-16-7.2-16-16s7.164-16 16-16h224c8.8 0 16-7.2 16-16s-7.2-16-16-16H48c-8.84 0-16-7.2-16-16s7.16-16 16-16h224c8.8 0 16-7.2 16-16s-7.2-16-16-16H16c-8.836 0-16-7.2-16-16s7.164-16 16-16h48V48zm96 416c26.5 0 48-21.5 48-48s-21.5-48-48-48-48 21.5-48 48 21.5 48 48 48zm320-96c-26.5 0-48 21.5-48 48s21.5 48 48 48 48-21.5 48-48-21.5-48-48-48zm-13.3-208H400V96h66.7c17 0 32.4 6.7 45.3 18.7l77.3 77.3c12 12 18.7 28.3 18.7 45.3V288h-64v-50.7L466.7 160z"/>
</symbol></svg>