<?xml version="1.0" encoding="utf-8"?>
<svg xmlns="http://www.w3.org/2000/svg">
<symbol id="angle-down-regular" viewBox="0 0 320 512"><path d="M151.5 347.8 3.5 201c-4.7-4.7-4.7-12.3 0-17l19.8-19.8c4.7-4.7 12.3-4.7 17 0L160 282.7l119.7-118.5c4.7-4.7 12.3-4.7 17 0l19.8 19.8c4.7 4.7 4.7 12.3 0 17l-148 146.8c-4.7 4.7-12.3 4.7-17 0z"/>
</symbol>
<symbol id="cart-shopping-solid" viewBox="0 0 576 512"><!--! Font Awesome Pro 6.0.0 by @fontawesome - https://fontawesome.com License - https://fontawesome.com/license (Commercial License) Copyright 2022 Fonticons, Inc.--><path d="M96 0c11.5 0 21.4 8.19 23.6 19.51L121.1 32h420.7c20.3 0 36.5 20.25 30.8 40.66l-54 192.04c-3.9 13.8-16.5 23.3-30.8 23.3H170.7l9.2 48H488c13.3 0 24 10.7 24 24s-10.7 24-24 24H159.1c-10.6 0-20.5-8.2-22.7-19.5L76.14 48H24C10.75 48 0 37.25 0 24S10.75 0 24 0h72zm32 464c0-26.5 21.5-48 48-48s48 21.5 48 48-21.5 48-48 48-48-21.5-48-48zm384 0c0 26.5-21.5 48-48 48s-48-21.5-48-48 21.5-48 48-48 48 21.5 48 48z"/>
</symbol>
<symbol id="clock-solid" viewBox="0 0 512 512"><!--! Font Awesome Pro 6.0.0 by @fontawesome - https://fontawesome.com License - https://fontawesome.com/license (Commercial License) Copyright 2022 Fonticons, Inc.--><path d="M256 512C114.6 512 0 397.4 0 256S114.6 0 256 0s256 114.6 256 256-114.6 256-256 256zm-24-256c0 8 4 15.5 10.7 19.1l96 64c11 8.2 25.9 5.2 32.4-5.8 8.2-11 5.2-25.9-5.8-33.3L280 243.2V120c0-13.3-10.7-24-24.9-24-12.4 0-24 10.7-24 24l.9 136z"/>
</symbol>
<symbol id="handshake-solid" viewBox="0 0 640 512"><!--! Font Awesome Pro 6.0.0 by @fontawesome - https://fontawesome.com License - https://fontawesome.com/license (Commercial License) Copyright 2022 Fonticons, Inc.--><path d="m0 383.9 64 .04c17.75 0 32-14.29 32-32.03V128.3H0v255.6zm48-63.8c8.75 0 16 7.118 16 15.99 0 8.742-7.25 15.99-16 15.99s-16-7.28-16-15.98c0-8.9 7.25-16 16-16zM348.8 64c-7.941 0-15.66 2.969-21.52 8.328L228.9 162.3c-.1.2-.1.4-.3.4-16.6 15.6-16.3 40.5-2.1 56 12.75 13.1 39.38 17.62 56.13 2.75.17-.15.27-.15.37-.25l79.88-73.1c6.5-5.871 16.75-5.496 22.62 1 6 6.496 5.5 16.62-1 22.62l-26.12 23.87L504 313.7c2.875 2.496 5.5 4.996 7.875 7.742V127.1c-40.98-40.96-96.48-63.88-154.4-63.88L348.8 64zm-14.2 153.4-30 27.49c-29.75 27.11-75.25 24.49-101.8-4.371C176 211.2 178.1 165.7 207.3 138.9L289.1 64h-6.6c-57.8 0-113.4 23.08-154.3 63.9l-.2 223.9 18.25.037 90.5 81.82c27.5 22.37 67.75 18.12 90-9.246l18.12 15.24c15.88 12.1 39.38 10.5 52.38-5.371l31.38-38.6 5.374 4.498c13.75 11 33.88 9.002 45-4.748l9.538-11.78c11.12-13.75 9.036-33.78-4.694-44.93L334.6 217.4zm209.4-89V352c0 17.62 14.25 32.05 31.1 32.05L640 384V128.1l-96 .3zM592 352c-8.75 0-16-7.246-16-15.99 0-8.875 7.25-15.99 16-15.99s16 7.18 16 16.08c0 8.7-7.2 15.9-16 15.9z"/>
</symbol>
<symbol id="location-dot-solid" viewBox="0 0 384 512"><!--! Font Awesome Pro 6.0.0 by @fontawesome - https://fontawesome.com License - https://fontawesome.com/license (Commercial License) Copyright 2022 Fonticons, Inc.--><path d="M168.3 499.2C116.1 435 0 279.4 0 192 0 85.96 85.96 0 192 0c106 0 192 85.96 192 192 0 87.4-117 243-168.3 307.2-12.3 15.3-35.1 15.3-47.4 0zM192 256c35.3 0 64-28.7 64-64s-28.7-64-64-64-64 28.7-64 64 28.7 64 64 64z"/>
</symbol>
<symbol id="magnifying-glass-solid" viewBox="0 0 512 512"><!--! Font Awesome Pro 6.0.0 by @fontawesome - https://fontawesome.com License - https://fontawesome.com/license (Commercial License) Copyright 2022 Fonticons, Inc.--><path d="M500.3 443.7 380.6 324c27.22-40.41 40.65-90.9 33.46-144.7C401.8 87.79 326.8 13.32 235.2 1.723 99.01-15.51-15.51 99.01 1.724 235.2c11.6 91.64 86.08 166.7 177.6 178.9 53.8 7.189 104.3-6.236 144.7-33.46l119.7 119.7c15.62 15.62 40.95 15.62 56.57 0 15.606-15.64 15.606-41.04.006-56.64zM79.1 208c0-70.58 57.42-128 128-128s128 57.42 128 128-57.42 128-128 128-128-57.4-128-128z"/>
</symbol>
<symbol id="phone-solid" viewBox="0 0 512 512"><!--! Font Awesome Pro 6.0.0 by @fontawesome - https://fontawesome.com License - https://fontawesome.com/license (Commercial License) Copyright 2022 Fonticons, Inc.--><path d="m511.2 387-23.25 100.8c-3.266 14.25-15.79 24.22-30.46 24.22C205.2 512 0 306.8 0 54.5c0-14.66 9.969-27.2 24.22-30.45L125.02.8c14.68-3.402 29.68 4.218 35.78 18.12l46.52 108.5c5.438 12.78 1.77 27.67-8.98 36.45L144.5 207.1c33.98 69.22 90.26 125.5 159.5 159.5l44.08-53.8c8.688-10.78 23.69-14.51 36.47-8.975l108.5 46.51C506.1 357.2 514.6 372.4 511.2 387z"/>
</symbol>
<symbol id="truck-fast-solid" viewBox="0 0 640 512"><!--! Font Awesome Pro 6.0.0 by @fontawesome - https://fontawesome.com License - https://fontawesome.com/license (Commercial License) Copyright 2022 Fonticons, Inc.--><path d="M64 48c0-26.51 21.49-48 48-48h256c26.5 0 48 21.49 48 48v208h192v96c17.7 0 32 14.3 32 32s-14.3 32-32 32h-32c0 53-43 96-96 96-53.9 0-96-43-96-96H256c0 53-43 96-96 96-53.9 0-96-43-96-96V288h144c8.8 0 16-7.2 16-16s-7.2-16-16-16H16c-8.836 0-16-7.2-16-16s7.164-16 16-16h224c8.8 0 16-7.2 16-16s-7.2-16-16-16H48c-8.84 0-16-7.2-16-16s7.16-16 16-16h224c8.8 0 16-7.2 16-16s-7.2-16-16-16H16c-8.836 0-16-7.2-16-16s7.164-16 16-16h48V48zm96 416c26.5 0 48-21.5 48-48s-21.5-48-48-48-48 21.5-48 48 21.5 48 48 48zm320-96c-26.5 0-48 21.5-48 48s21.5 48 48 48 48-21.5 48-48-21.5-48-48-48zm-13.3-208H400V96h66.7c17 0 32.4 6.7 45.3 18.7l77.3 77.3c12 12 18.7 28.3 18.7 45.3V288h-64v-50.7L466.7 160z"/>
</symbol>
<symbol id="user-group-solid" viewBox="0 0 640 512"><!--! Font Awesome Pro 6.0.0 by @fontawesome - https://fontawesome.com License - https://fontawesome.com/license (Commercial License) Copyright 2022 Fonticons, Inc.--><path d="M224 256c70.7 0 128-57.31 128-128S294.7 0 224 0 96 57.31 96 128s57.3 128 128 128zm50.7 48H173.3C77.57 304 0 381.6 0 477.3 0 496.5 15.52 512 34.66 512H413.3c19.2 0 34.7-15.5 34.7-34.7 0-95.7-77.6-173.3-173.3-173.3zm204.4 16h-73.85C451.2 357.7 480 414.1 480 477.3c0 12.8-3.8 24.6-10 34.7h138c17.7 0 32-14.4 32-32.9 0-87.5-71.6-159.1-160.9-159.1zM432 256c61.9 0 112-50.1 112-112S493.9 32 432 32c-25.11 0-48.04 8.555-66.72 22.51C376.8 76.63 384 101.4 384 128c0 35.52-11.93 68.14-31.59 94.71C372.7 243.2 400.8 256 432 256z"/>
</symbol>
<symbol id="user-solid" viewBox="0 0 448 512"><!--! Font Awesome Pro 6.0.0 by @fontawesome - https://fontawesome.com License - https://fontawesome.com/license (Commercial License) Copyright 2022 Fonticons, Inc.--><path d="M224 256c70.7 0 128-57.31 128-128S294.7 0 224 0 96 57.31 96 128s57.3 128 128 128zm50.7 48H173.3C77.61 304 0 381.6 0 477.3c0 19.14 15.52 34.67 34.66 34.67h378.7C432.5 512 448 496.5 448 477.3c0-95.7-77.6-173.3-173.3-173.3z"/>
</symbol></svg>