<svg width="16" height="14" viewBox="0 0 16 14" fill="none" xmlns="http://www.w3.org/2000/svg">
<path d="M14.4468 0.959367C12.7436 -0.490633 10.1968 -0.250008 8.61552 1.38124L7.9999 2.01874L7.38427 1.38437C6.10927 0.0656173 3.5374 -0.728133 1.55302 0.959367C-0.40948 2.63437 -0.512605 5.64062 1.24365 7.45312L7.29052 13.6969C7.48427 13.8969 7.74052 14 7.99677 14C8.25302 14 8.50927 13.9 8.70302 13.6969L14.7499 7.45312C16.5124 5.64062 16.4093 2.63437 14.4468 0.959367ZM14.0374 6.75937L8.0124 13.0031L1.9624 6.75937C0.762395 5.52187 0.512395 3.16249 2.20302 1.72187C3.91552 0.259367 5.92802 1.31874 6.66552 2.08124L7.9999 3.45937L9.33427 2.08124C10.0593 1.33124 12.0905 0.268742 13.7968 1.72187C15.4843 3.15937 15.2374 5.51874 14.0374 6.75937Z" fill="#252525"/>
</svg>
